<svg width="149" height="40" viewBox="0 0 149 40" fill="none" xmlns="http://www.w3.org/2000/svg">
<path d="M58.2954 17.3896C57.9488 16.751 57.447 16.2676 56.7902 15.9392C56.1516 15.5926 55.3945 15.4192 54.5187 15.4192C53.0044 15.4192 51.7912 15.921 50.879 16.9244C49.9667 17.9096 49.5106 19.2324 49.5106 20.8926C49.5106 22.6623 49.985 24.0489 50.9337 25.0523C51.9007 26.0375 53.2234 26.5301 54.9019 26.5301C56.0513 26.5301 57.0183 26.2382 57.8028 25.6544C58.6056 25.0705 59.1893 24.2313 59.5542 23.1366H53.6156V19.6884H63.7961V24.0398C63.4495 25.2074 62.8564 26.293 62.0172 27.2964C61.1962 28.2998 60.1471 29.1118 58.8701 29.732C57.593 30.3523 56.1516 30.6625 54.5461 30.6625C52.6487 30.6625 50.9519 30.252 49.4559 29.431C47.9781 28.5918 46.8195 27.4332 45.9803 25.9554C45.1593 24.4776 44.7488 22.79 44.7488 20.8926C44.7488 18.9951 45.1593 17.3075 45.9803 15.8297C46.8195 14.3337 47.9781 13.1752 49.4559 12.3542C50.9337 11.5149 52.6213 11.0953 54.5187 11.0953C56.8176 11.0953 58.7514 11.6518 60.3205 12.7647C61.9078 13.8775 62.9569 15.4192 63.4677 17.3896H58.2954ZM71.0679 17.8001C71.6153 16.9609 72.2994 16.3041 73.1204 15.8297C73.9415 15.3371 74.8537 15.0908 75.8571 15.0908V20.0442H74.5709C73.4033 20.0442 72.5275 20.2997 71.9437 20.8105C71.3598 21.3031 71.0679 22.1788 71.0679 23.4377V30.5257H66.3882V15.255H71.0679V17.8001ZM85.0451 30.7446C83.549 30.7446 82.1989 30.4254 80.9948 29.7868C79.8089 29.1482 78.8693 28.236 78.176 27.0501C77.5009 25.8642 77.1635 24.4776 77.1635 22.8903C77.1635 21.3213 77.5101 19.9439 78.2034 18.758C78.8966 17.5538 79.8454 16.6325 81.0495 15.9939C82.2537 15.3553 83.6037 15.0361 85.0998 15.0361C86.5958 15.0361 87.946 15.3553 89.1501 15.9939C90.3542 16.6325 91.3029 17.5538 91.9962 18.758C92.6895 19.9439 93.0362 21.3213 93.0362 22.8903C93.0362 24.4594 92.6804 25.846 91.9689 27.0501C91.2756 28.236 90.3177 29.1482 89.0954 29.7868C87.8912 30.4254 86.5411 30.7446 85.0451 30.7446ZM85.0451 26.6943C85.939 26.6943 86.6961 26.3659 87.3165 25.7091C87.955 25.0523 88.2744 24.1127 88.2744 22.8903C88.2744 21.668 87.9642 20.7284 87.3439 20.0716C86.7418 19.4148 85.9938 19.0864 85.0998 19.0864C84.1876 19.0864 83.4304 19.4148 82.8284 20.0716C82.2263 20.7102 81.9253 21.6497 81.9253 22.8903C81.9253 24.1127 82.2172 25.0523 82.801 25.7091C83.4031 26.3659 84.151 26.6943 85.0451 26.6943ZM117.439 15.255L113.307 30.5257H108.134L105.727 20.6189L103.236 30.5257H98.0913L93.9316 15.255H98.6113L100.773 26.1744L103.346 15.255H108.299L110.898 26.1196L113.033 15.255H117.439ZM126.887 19.1411H124.369V30.5257H119.689V19.1411H117.993V15.255H119.689V14.8172C119.689 12.938 120.227 11.5149 121.304 10.5479C122.381 9.56275 123.959 9.07014 126.039 9.07014C126.385 9.07014 126.641 9.07927 126.805 9.09751V13.0657C125.911 13.011 125.282 13.1386 124.917 13.4488C124.551 13.759 124.369 14.3154 124.369 15.1182V15.255H126.887V19.1411ZM144.685 15.255L135.106 37.7779H130.071L133.574 30.0057L127.362 15.255H132.589L136.119 24.806L139.622 15.255H144.685Z" fill="white"/>
<path d="M23.8469 12.632C23.8469 8.5628 27.1457 5.26406 31.2149 5.26406H38.5829V12.632C38.5829 16.7013 35.2841 20 31.2149 20C27.1457 20 23.8469 16.7013 23.8469 12.632Z" fill="#FF6D35"/>
<path d="M31.2148 37.6771C27.1456 37.6771 23.8468 34.3784 23.8468 30.3092V22.9412H31.2148C35.284 22.9412 38.5828 26.2399 38.5828 30.3092C38.5828 34.3784 35.284 37.6771 31.2148 37.6771Z" fill="#5CC97B"/>
<path d="M21.5253 20.6522C21.5253 12.4754 15.399 5.84694 7.84194 5.84694V30.0214C7.84194 34.1097 10.9051 37.424 14.6837 37.424C18.4622 37.424 21.5253 34.1097 21.5253 30.0214V20.6522Z" fill="#3D96F4"/>
</svg>
